<svg width="56" height="56" viewBox="0 0 56 56" fill="none" xmlns="http://www.w3.org/2000/svg">
<path d="M42.525 15.75V16.75C42.8476 16.75 43.1503 16.5944 43.3381 16.3321C43.5259 16.0698 43.5756 15.7331 43.4716 15.4277L42.525 15.75ZM21 41C20.4477 41 20 41.4477 20 42C20 42.5523 20.4477 43 21 43V41ZM47.25 42V43C47.6188 43 47.9577 42.797 48.1317 42.4719C48.3057 42.1467 48.2866 41.7522 48.0821 41.4453L47.25 42ZM49 17.5V16.5C48.549 16.5 48.1539 16.8018 48.0352 17.2369L49 17.5ZM54.25 18.5C54.8023 18.5 55.25 18.0523 55.25 17.5C55.25 16.9477 54.8023 16.5 54.25 16.5V18.5ZM24.5 36.75L23.5385 37.0247C23.6611 37.454 24.0535 37.75 24.5 37.75V36.75ZM21 24.5V23.5C20.6862 23.5 20.3906 23.6473 20.2017 23.8978C20.0127 24.1483 19.9523 24.473 20.0385 24.7747L21 24.5ZM11.7461 41.8138C12.2232 42.0921 12.8355 41.9309 13.1138 41.4539C13.3921 40.9768 13.2309 40.3645 12.7539 40.0862L11.7461 41.8138ZM30.325 19.25C30.325 19.8023 30.7727 20.25 31.325 20.25C31.8773 20.25 32.325 19.8023 32.325 19.25H30.325ZM30.975 15.75L29.9859 15.8973C29.9868 15.903 29.9877 15.9087 29.9886 15.9144L30.975 15.75ZM14.525 15.75L15.5134 15.9021L15.5141 15.8973L14.525 15.75ZM14.525 29.75L15.5162 29.6178C15.5148 29.6071 15.5132 29.5963 15.5114 29.5856L14.525 29.75ZM15.3263 37.0662C15.501 37.5902 16.0673 37.8733 16.5912 37.6987C17.1152 37.524 17.3983 36.9577 17.2237 36.4338L15.3263 37.0662ZM42.525 14.75H3.5V16.75H42.525V14.75ZM14 28.75H3.5V30.75H14V28.75ZM21 43H47.25V41H21V43ZM48.0821 41.4453L44.5821 36.1953L42.9179 37.3047L46.4179 42.5547L48.0821 41.4453ZM44.7148 37.0131L49.9648 17.7631L48.0352 17.2369L42.7852 36.4869L44.7148 37.0131ZM49 18.5H54.25V16.5H49V18.5ZM43.75 35.75H24.5V37.75H43.75V35.75ZM25.4615 36.4753L21.9615 24.2253L20.0385 24.7747L23.5385 37.0247L25.4615 36.4753ZM21 25.5H47.25V23.5H21V25.5ZM44.5 50.75C44.5 52.1307 43.3807 53.25 42 53.25V55.25C44.4853 55.25 46.5 53.2353 46.5 50.75H44.5ZM42 53.25C40.6193 53.25 39.5 52.1307 39.5 50.75H37.5C37.5 53.2353 39.5147 55.25 42 55.25V53.25ZM39.5 50.75C39.5 49.3693 40.6193 48.25 42 48.25V46.25C39.5147 46.25 37.5 48.2647 37.5 50.75H39.5ZM42 48.25C43.3807 48.25 44.5 49.3693 44.5 50.75H46.5C46.5 48.2647 44.4853 46.25 42 46.25V48.25ZM28.75 50.75C28.75 52.1307 27.6307 53.25 26.25 53.25V55.25C28.7353 55.25 30.75 53.2353 30.75 50.75H28.75ZM26.25 53.25C24.8693 53.25 23.75 52.1307 23.75 50.75H21.75C21.75 53.2353 23.7647 55.25 26.25 55.25V53.25ZM23.75 50.75C23.75 49.3693 24.8693 48.25 26.25 48.25V46.25C23.7647 46.25 21.75 48.2647 21.75 50.75H23.75ZM26.25 48.25C27.6307 48.25 28.75 49.3693 28.75 50.75H30.75C30.75 48.2647 28.7353 46.25 26.25 46.25V48.25ZM12.7539 40.0862C6.74803 36.5828 2.75 30.0795 2.75 22.75H0.75C0.75 30.8205 5.15197 37.9672 11.7461 41.8138L12.7539 40.0862ZM2.75 22.75C2.75 11.7523 11.7523 2.75 22.75 2.75V0.75C10.6477 0.75 0.75 10.6477 0.75 22.75H2.75ZM22.75 2.75C31.4227 2.75 38.9166 8.25327 41.5783 16.0723L43.4716 15.4277C40.5334 6.79673 32.2773 0.75 22.75 0.75V2.75ZM32.325 19.25C32.325 17.9387 32.1382 16.6466 31.9614 15.5856L29.9886 15.9144C30.1618 16.9534 30.325 18.1113 30.325 19.25H32.325ZM31.9641 15.6027C31.3405 11.4156 30.2187 7.78332 28.7137 5.16701C27.2333 2.59342 25.2214 0.75 22.75 0.75V2.75C24.1286 2.75 25.6167 3.79408 26.9801 6.16424C28.3188 8.49168 29.3845 11.8594 29.9859 15.8973L31.9641 15.6027ZM22.75 0.75C20.2786 0.75 18.2667 2.59342 16.7863 5.16701C15.2813 7.78332 14.1595 11.4156 13.5359 15.6027L15.5141 15.8973C16.1155 11.8594 17.1812 8.49168 18.5199 6.16424C19.8833 3.79408 21.3714 2.75 22.75 2.75V0.75ZM13.5366 15.5979C13.1787 17.9246 13 20.2504 13 22.75H15C15 20.3496 15.1713 18.1254 15.5134 15.9021L13.5366 15.5979ZM13 22.75C13 25.2429 13.1778 27.7493 13.5386 29.9144L15.5114 29.5856C15.1722 27.5507 15 25.1571 15 22.75H13ZM13.5338 29.8822C13.8967 32.6042 14.6217 34.9523 15.3263 37.0662L17.2237 36.4338C16.5283 34.3477 15.8533 32.1458 15.5162 29.6178L13.5338 29.8822Z" fill="#7589A5"/>
</svg>
