<svg width="56" height="56" viewBox="0 0 56 56" fill="none" xmlns="http://www.w3.org/2000/svg">
<path d="M53 42V43H54V42H53ZM53 30H54V29H53V30ZM41 35C40.4477 35 40 35.4477 40 36C40 36.5523 40.4477 37 41 37V35ZM44.5 37C45.0523 37 45.5 36.5523 45.5 36C45.5 35.4477 45.0523 35 44.5 35V37ZM41.6196 18.4068C41.292 18.8515 41.3869 19.4775 41.8315 19.8051C42.2761 20.1327 42.9021 20.0378 43.2297 19.5932L41.6196 18.4068ZM43.2734 17.8482L42.5258 17.1839L42.4954 17.2181L42.4683 17.255L43.2734 17.8482ZM42.9629 13.5682L43.6157 12.8106L43.6092 12.8051L43.6026 12.7996L42.9629 13.5682ZM29.9238 2.71553L30.5635 1.94693L30.5479 1.93396L30.5318 1.92163L29.9238 2.71553ZM25.5774 3.02124L24.8299 2.357L24.8225 2.36528L24.8153 2.37372L25.5774 3.02124ZM11.238 18.3525C10.8803 18.7733 10.9316 19.4044 11.3525 19.762C11.7733 20.1197 12.4044 20.0684 12.762 19.6475L11.238 18.3525ZM2 24C2 24.5523 2.44772 25 3 25C3.55228 25 4 24.5523 4 24H2ZM17 14C17.5523 14 18 13.5523 18 13C18 12.4477 17.5523 12 17 12V14ZM43 12C42.4477 12 42 12.4477 42 13C42 13.5523 42.4477 14 43 14V12ZM53 41H41.1V43H53V41ZM41.1 31H53V29H41.1V31ZM52 30V42H54V30H52ZM41.1 29C37.234 29 34.1 32.134 34.1 36H36.1C36.1 33.2386 38.3386 31 41.1 31V29ZM41.1 41C38.3386 41 36.1 38.7614 36.1 36H34.1C34.1 39.866 37.234 43 41.1 43V41ZM41 37H44.5V35H41V37ZM43.2297 19.5932L44.0784 18.4413L42.4683 17.255L41.6196 18.4068L43.2297 19.5932ZM44.0209 18.5124C45.4879 16.8615 45.2694 14.2356 43.6157 12.8106L42.3102 14.3258C43.1401 15.0409 43.232 16.3892 42.5258 17.1839L44.0209 18.5124ZM43.6026 12.7996L30.5635 1.94693L29.284 3.48414L42.3232 14.3368L43.6026 12.7996ZM30.5318 1.92163C28.7504 0.557249 26.2904 0.713328 24.8299 2.357L26.3249 3.68548C27.0375 2.88348 28.3031 2.73385 29.3157 3.50944L30.5318 1.92163ZM24.8153 2.37372L11.238 18.3525L12.762 19.6475L26.3394 3.66876L24.8153 2.37372ZM7 20H49V18H7V20ZM52 23V49H54V23H52ZM49 52H7V54H49V52ZM4 49V23H2V49H4ZM7 52C5.34315 52 4 50.6569 4 49H2C2 51.7614 4.23858 54 7 54V52ZM52 49C52 50.6569 50.6569 52 49 52V54C51.7614 54 54 51.7614 54 49H52ZM49 20C50.6569 20 52 21.3431 52 23H54C54 20.2386 51.7614 18 49 18V20ZM7 18C4.23858 18 2 20.2386 2 23H4C4 21.3431 5.34315 20 7 20V18ZM4 24V17H2V24H4ZM7 14H17V12H7V14ZM4 17C4 15.3431 5.34315 14 7 14V12C4.23858 12 2 14.2386 2 17H4ZM48 17V19H50V17H48ZM43 14H45V12H43V14ZM50 17C50 14.2386 47.7614 12 45 12V14C46.6569 14 48 15.3431 48 17H50Z" fill="#7589A5"/>
</svg>
