<svg width="56" height="56" viewBox="0 0 56 56" fill="none" xmlns="http://www.w3.org/2000/svg">
<path d="M28 42C35.732 42 42 35.732 42 28C42 20.268 35.732 14 28 14M28 42C20.268 42 14 35.732 14 28C14 20.268 20.268 14 28 14M28 42C30.8995 42 33.25 35.732 33.25 28C33.25 20.268 30.8995 14 28 14M28 42C25.1005 42 22.75 35.732 22.75 28C22.75 20.268 25.1005 14 28 14M15.75 22.75H40.25M15.75 33.25H40.25M50.0633 22.1612C49.451 19.9984 48.6964 18.0735 47.5917 16.2827C47.3888 15.9538 47.3768 15.5387 47.5756 15.2074L49.4733 12.0445C49.7094 11.651 49.6474 11.1474 49.3229 10.8229L45.1771 6.67709C44.8526 6.35262 44.349 6.29062 43.9555 6.52671L40.7926 8.42441C40.4613 8.62324 40.0462 8.61149 39.718 8.40744C37.926 7.29326 35.9124 6.43097 33.8781 5.92104C33.4972 5.82557 33.1964 5.52848 33.113 5.14476L32.5462 2.53757C32.4463 2.07788 32.0395 1.75 31.569 1.75H24.431C23.9605 1.75 23.5537 2.07788 23.4538 2.53757L22.8797 5.17848C22.8001 5.54474 22.5218 5.83465 22.1612 5.93674C19.9984 6.54901 18.0735 7.30358 16.2827 8.4083C15.9538 8.61119 15.5387 8.62324 15.2074 8.42441L12.0445 6.52671C11.651 6.29062 11.1474 6.35262 10.8229 6.67709L6.67709 10.8229C6.35262 11.1474 6.29062 11.651 6.52671 12.0445L8.42441 15.2074C8.62324 15.5387 8.61149 15.9538 8.40744 16.282C7.29326 18.074 6.43097 20.0876 5.92104 22.1219C5.82557 22.5028 5.52848 22.8036 5.14476 22.887L2.53757 23.4538C2.07788 23.5537 1.75 23.9605 1.75 24.431V31.569C1.75 32.0395 2.07788 32.4463 2.53757 32.5462L5.17848 33.1203C5.54474 33.1999 5.83465 33.4782 5.93674 33.8388C6.54776 35.9972 7.30052 37.9187 8.40159 39.7064C8.60769 40.0411 8.61612 40.4642 8.40781 40.7975L6.54662 43.7754C6.29982 44.1703 6.35824 44.6832 6.68751 45.0125L10.8229 49.1479C11.1474 49.4724 11.651 49.5344 12.0445 49.2983L15.2074 47.4006C15.5387 47.2018 15.9538 47.2135 16.282 47.4176C18.0722 48.5306 20.0837 49.3923 22.1159 49.9025C22.4998 49.9988 22.8021 50.2999 22.8828 50.6874L23.4592 53.454C23.5558 53.9177 23.9645 54.25 24.4381 54.25H31.569C32.0395 54.25 32.4463 53.9221 32.5462 53.4624L33.1203 50.8215C33.1999 50.4553 33.4782 50.1654 33.8388 50.0633C36.0016 49.451 37.9265 48.6964 39.7173 47.5917C40.0462 47.3888 40.4613 47.3768 40.7926 47.5756L43.9555 49.4733C44.349 49.7094 44.8526 49.6474 45.1771 49.3229L49.3229 45.1771C49.6474 44.8526 49.7094 44.349 49.4733 43.9555L47.5756 40.7926C47.3768 40.4613 47.3885 40.0462 47.5926 39.718C48.7067 37.926 49.569 35.9124 50.079 33.8781C50.1744 33.4972 50.4715 33.1964 50.8552 33.113L53.4624 32.5462C53.9221 32.4463 54.25 32.0395 54.25 31.569V24.431C54.25 23.9605 53.9221 23.5537 53.4624 23.4538L50.8215 22.8797C50.4553 22.8001 50.1654 22.5218 50.0633 22.1612Z" stroke="#7589A5" stroke-width="2" stroke-linecap="round" stroke-linejoin="round"/>
</svg>
