<svg width="139" height="48" viewBox="0 0 139 48" fill="none" xmlns="http://www.w3.org/2000/svg">
<path d="M72.2791 16.1569L75.0128 24.8366H69.5194L72.2791 16.1569ZM64 32H67.2544L68.7123 27.3726H75.8199L77.3038 32H80.8967L74.7524 13.3072H70.2223L64 32Z" fill="white"/>
<path d="M85.2878 32H88.5161L91.2758 22.7974L93.8012 32H97.0035L101.273 18.3268H98.2011L95.3633 28.2092L92.7078 18.3268H90.0782L87.1884 28.2092L84.4807 18.3268H81.1222L85.2878 32Z" fill="white"/>
<path d="M104.293 16.0784C105.334 16.0784 106.168 15.2941 106.168 14.2745C106.168 13.2288 105.334 12.4444 104.293 12.4444C103.252 12.4444 102.419 13.2288 102.419 14.2745C102.419 15.2941 103.252 16.0784 104.293 16.0784ZM102.757 32H105.907V18.3268H102.757V32Z" fill="white"/>
<path d="M108.824 32H111.974V12H108.824V32Z" fill="white"/>
<path d="M114.89 32H118.041V12H114.89V32Z" fill="white"/>
<path d="M122.493 16.0784C123.535 16.0784 124.368 15.2941 124.368 14.2745C124.368 13.2288 123.535 12.4444 122.493 12.4444C121.452 12.4444 120.619 13.2288 120.619 14.2745C120.619 15.2941 121.452 16.0784 122.493 16.0784ZM120.957 32H124.107V18.3268H120.957V32Z" fill="white"/>
<path d="M125.618 32H128.898L132.153 27.0588L135.329 32H139L134.131 24.7582L138.531 18.3268H135.225L132.413 22.7451L129.575 18.3268H125.93L130.356 24.9935L125.618 32Z" fill="white"/>
<circle cx="24" cy="24" r="24" fill="#007AFF"/>
<path d="M2.48736 13.3481C0.895126 16.5577 0 20.1743 0 24C0 26.6809 0.439563 29.2591 1.25055 31.6665L15 28L24 33L22 34L29 39L33 36L33.9295 33.2114C32.9481 32.6114 31.1931 31.7218 28.698 31.1505L28.3474 31.0734L25.764 30.2756C25.4241 30.1707 25.4467 29.6953 25.7565 29.5993L25.8331 29.5843L26.5366 29.5181C26.8859 29.4855 26.9625 29.0244 26.6852 28.8616L26.615 28.8297L21.6463 27.1456C21.2694 27.018 21.3691 26.4747 21.7279 26.4554L21.803 26.4588L26.7597 27.1491C27.1426 27.2025 27.2979 26.6912 26.999 26.5016L26.933 26.4683L24.5571 25.5278C24.1906 25.3828 24.3103 24.85 24.6671 24.843L24.7415 24.8488L29.0795 25.5996C29.4048 25.6557 29.6047 25.2731 29.4125 25.0315L29.3653 24.9821L23.8019 20.1137C23.7639 20.0805 23.7196 20.0562 23.6722 20.0421L23.5991 20.0288L9.44641 19.017C9.05731 18.9892 9.00018 18.4318 9.37543 18.3235L14.7709 16.7674C14.8521 16.7439 14.8466 16.4235 14.7636 16.4049L14.1302 16.2583C11.8154 15.7128 6.99559 14.4967 2.48736 13.3481Z" fill="url(#paint0_linear)"/>
<path fill-rule="evenodd" clip-rule="evenodd" d="M2.48828 13.3481C3.53339 11.2413 4.87891 9.31003 6.46875 7.61011L8.36591 8.14447C10.5206 8.75067 12.6707 9.35565 14.8282 9.96866L15.5662 10.1814L16.3043 10.3882C16.6417 10.4823 16.9792 10.5764 17.3167 10.673C17.3363 10.6788 17.3523 10.6931 17.3608 10.7113L17.3674 10.7412V10.9045L17.3639 11.0355L17.3563 11.1779C17.3379 11.5052 17.3176 11.877 17.4623 12.0985C17.674 12.3997 17.9288 12.6729 18.1874 12.9361L18.5734 13.3247C18.7319 13.5184 19.0814 13.5829 19.3036 13.6152C19.4262 13.6403 19.7028 13.6848 19.8798 13.6277C19.9232 13.6137 19.9766 13.6312 19.9923 13.6746C20.0873 13.9334 20.1832 14.1901 20.2827 14.4436L20.2883 14.4659C20.3408 15.0046 21.8418 15.1291 21.7155 14.7447C21.4426 13.9421 21.1688 13.1396 20.8682 12.3372C20.8654 12.3307 20.8663 12.3235 20.871 12.3179C20.8765 12.31 20.8755 12.2997 20.8701 12.2929L20.8499 12.2817L20.8442 12.2735L20.8267 12.2276C20.6995 11.9049 19.5571 11.5822 19.3349 11.9049L19.05 12.3219C19.0306 12.3498 18.9957 12.3586 18.967 12.3469L18.9412 12.3285L18.8453 12.2213L18.8316 12.1992L18.8269 12.1735V10.4708L18.8293 10.4533L18.8352 10.4367C18.9036 10.302 18.9073 10.1817 18.8677 10.0812L18.8301 10.0038L18.8269 9.98279V8.29291C18.8269 8.24237 18.8776 8.2081 18.9237 8.22754C20.2375 8.78442 21.5394 9.34131 22.8403 9.89816C22.8533 9.90396 22.8652 9.91394 22.8726 9.92667L24.6668 12.9053C24.8003 13.1306 24.9794 13.2458 25.1835 13.3388L25.4607 13.4538L27.2697 14.2283L30.1708 15.4627L31.142 15.8741L31.1964 15.9031L31.2745 15.9848L31.3956 16.1L32.6652 17.5844L33.3235 18.3445L35.1702 20.4634C35.1942 20.4913 35.1933 20.5333 35.1675 20.5599L34.8235 20.9244L34.7717 20.9795C34.6271 21.1332 34.487 21.2821 34.3469 21.4246C34.2833 21.4891 34.3156 21.5859 34.3792 21.6505L34.6863 21.9344L35.333 22.5206L35.991 23.13L36.3283 23.456C36.6196 23.7398 36.9101 24.0222 37.2097 24.2754L37.2288 24.2999L37.2615 24.411L37.2687 24.4665L37.4578 25.2648L38.0284 27.7818L38.1972 28.5522C38.2037 28.5817 38.1914 28.6085 38.1708 28.6246C38.1506 28.6404 38.1223 28.6458 38.0958 28.6332C37.0013 28.1171 35.4791 28.0047 34.9849 27.9813C34.9363 27.979 34.9059 28.0252 34.9169 28.0672L34.9333 28.0971L36.202 29.4942C36.2407 29.5367 36.2158 29.6068 36.1605 29.6213C36.0351 29.6548 35.9263 29.7205 35.9973 29.8471C36.0886 30.0138 36.1482 30.1916 36.2007 30.3737L36.3154 30.783L36.4103 31.2417L36.4295 31.3927C36.4328 31.409 36.4359 31.4188 36.438 31.416L36.4414 31.3641L36.4545 31.6449L36.4557 31.7877L36.449 32.2377C36.4477 32.2872 36.4464 32.3366 36.4452 32.3857C36.444 32.4362 36.4431 32.4865 36.4426 32.5364C36.4426 32.5643 36.426 32.5894 36.4011 32.6006C35.7318 32.8997 35.0633 33.197 34.3948 33.4734C34.3737 33.4822 34.3506 33.4803 34.3312 33.4674L34.106 33.3206C33.1663 32.7242 31.3505 31.7575 28.699 31.1504L28.3484 31.0733L25.765 30.2755C25.425 30.1707 25.4477 29.6952 25.7575 29.5992L25.834 29.5842L26.5375 29.5181C26.8868 29.4854 26.9635 29.0243 26.6862 28.8616L26.616 28.8297L21.6473 27.1455C21.2704 27.0179 21.3701 26.4747 21.7289 26.4553L21.804 26.4587L26.7607 27.149C27.1436 27.2024 27.2988 26.6912 26.9999 26.5016L26.934 26.4682L24.558 25.5277C24.1915 25.3827 24.3113 24.8499 24.668 24.8429L24.7424 24.8488L29.0804 25.5995C29.4058 25.6557 29.6057 25.273 29.4135 25.0314L29.3663 24.982L23.8029 20.1136C23.7648 20.0804 23.7206 20.0562 23.6732 20.0421L23.6001 20.0287L9.44739 19.017C9.05829 18.9891 9.00116 18.4318 9.3764 18.3234L14.7719 16.7673C14.8531 16.7438 14.8475 16.4235 14.7646 16.4048L14.1312 16.2582C11.8164 15.7127 6.99652 14.4966 2.48828 13.3481ZM28.826 20.112C28.778 20.0722 28.8011 19.9947 28.8629 19.9895C29.5903 19.9298 32.4817 19.7647 32.6873 20.8942C32.6946 20.9354 32.6606 20.973 32.6209 20.982C32.4144 21.0276 31.8907 21.2986 32.3683 22.8978C32.3885 22.966 32.3083 23.0227 32.2549 22.9775L28.826 20.112Z" fill="white"/>
<defs>
<linearGradient id="paint0_linear" x1="21" y1="14" x2="13.75" y2="39" gradientUnits="userSpaceOnUse">
<stop stop-color="white" stop-opacity="0"/>
<stop offset="1" stop-color="white"/>
</linearGradient>
</defs>
</svg>
