<svg width="76" height="18" viewBox="0 0 76 18" fill="none" xmlns="http://www.w3.org/2000/svg">
<path fill-rule="evenodd" clip-rule="evenodd" d="M28.365 4.83739C29.5499 4.83739 30.6184 5.32263 31.415 6.2547L31.4457 6.2916C31.9463 6.90088 32.701 8.13187 32.7163 10.002L32.7164 10.1097C32.7134 10.6711 32.6496 12.0792 31.745 13.3411C30.6105 14.9362 29.0572 15.1234 28.3097 15.127L28.269 15.127C27.6896 15.1245 26.7044 15.0028 25.678 14.0697L25.6453 14.0397V17.9999H23.3143V5.12849H25.6453V6.00216C26.3644 5.2448 27.3552 4.83739 28.365 4.83739ZM6.32661 0.800293C7.53914 0.800293 9.99025 1.1432 11.6242 3.67631L11.6735 3.75374L9.41768 5.09488L9.33466 4.95061C8.94513 4.27964 8.19442 3.13766 6.23534 3.11317L6.17102 3.11277C5.58776 3.11277 3.79909 3.30699 3.79909 4.76443C3.79909 5.62979 4.63741 6.05763 6.06921 6.40557L7.55139 6.76603C9.70949 7.29062 11.8093 8.14565 11.8093 10.7881C11.8093 14.1887 8.62094 15.2185 6.17102 15.2185C3.89957 15.2185 1.66637 14.3229 0.433536 12.1182L0.396484 12.051L2.69088 10.7881C3.40993 11.9537 4.5576 12.8091 6.52116 12.8091C7.70691 12.8091 9.10693 12.3425 9.10693 11.0407C9.10693 10.1176 8.32569 9.70821 6.63104 9.26662L6.5794 9.25323L4.82968 8.80604C2.41872 8.18457 1.11597 7.11547 1.11597 4.91973C1.11597 2.74348 2.88542 0.800293 6.32661 0.800293ZM38.5517 4.86061C42.2179 4.86061 43.2994 7.76617 43.3207 10.4376L43.321 10.5185H36.109L36.1116 10.5494C36.1608 11.0828 36.5044 13.0181 38.7845 13.0181C40.4018 13.0181 41.0706 11.906 41.2861 11.5385L41.3048 11.5066L43.321 12.4756C42.2353 14.2388 40.5486 15.13 38.4938 15.13C35.9731 15.13 33.7049 13.3473 33.7049 9.97604C33.7049 6.66241 36.1284 4.86061 38.5517 4.86061ZM60.4886 4.8548C62.8549 4.8548 65.4734 6.46353 65.4734 9.97225C65.4734 13.4812 62.8742 15.129 60.4886 15.129C58.103 15.129 55.504 13.4812 55.504 9.97225C55.504 6.46353 58.103 4.8548 60.4886 4.8548ZM54.4333 1.14937V10.7615C54.4333 12.7575 54.0261 15.122 50.0901 15.122L49.9663 15.1217C49.6453 15.1196 49.188 15.1023 48.5441 14.9574L48.4999 14.9473V12.4867L48.6166 12.5123C49.2299 12.6459 49.4918 12.6805 49.8574 12.6805C51.7757 12.6805 51.9062 11.623 51.9123 10.2681L51.9125 10.1416V1.14937H54.4333ZM68.8332 1.15202V5.96518C69.8627 4.99505 70.9693 4.85925 71.6104 4.85925C73.8627 4.85925 75.8821 6.83849 75.8821 9.94408C75.8821 13.3987 73.6683 15.0869 71.6104 15.0869L71.558 15.0866C70.9812 15.0803 69.836 14.9605 68.8449 13.9542L68.8139 13.9225V14.8542H66.503V1.15202H68.8332ZM15.1865 5.14411L15.1866 10.8827L15.1871 10.9436C15.2016 11.9382 15.4689 12.9819 17.0866 12.9819C18.1988 12.9819 18.7799 12.2657 18.9614 11.9146L18.9674 11.9029C19.2952 11.2695 19.3323 10.433 19.3356 9.72712L19.3359 9.59077V5.14411H21.6629V14.8401H19.3359V14.0148C18.3082 14.8047 17.2031 15.072 16.1753 15.072C15.1475 15.072 14.2363 14.7059 13.6547 14.0124L13.6213 13.9719C13.0933 13.3227 12.8503 12.6206 12.8406 11.0304L12.8403 10.9299V5.14411H15.1865ZM49.7207 4.93062V7.31584L49.6191 7.31623C49.0167 7.32227 47.3391 7.42288 46.8101 9.09973C46.6473 9.6068 46.6364 10.0626 46.6357 10.5784L46.6357 14.8394H44.3083V5.1439H46.6357V6.52079C47.5828 5.01031 48.9746 4.93397 49.482 4.93075L49.5265 4.93062H49.7207ZM60.4886 6.98697C58.7819 6.98697 57.9285 8.42142 57.9285 9.97225C57.9285 11.5424 58.7819 12.9964 60.4886 12.9964C62.1954 12.9964 63.0487 11.5424 63.0487 9.97225C63.0487 8.42142 62.1954 6.98697 60.4886 6.98697ZM71.2024 6.97472C69.8043 6.97472 68.8332 8.19747 68.8332 9.9635C68.8332 11.6906 69.8043 12.9329 71.2024 12.9329C72.5618 12.9329 73.5326 11.6906 73.5326 9.9635C73.5326 8.19747 72.5618 6.97472 71.2024 6.97472ZM28.0052 7.07003C26.6064 7.07003 25.6353 8.2348 25.6353 10.0016C25.6353 11.7295 26.6064 12.9138 28.0052 12.9138C29.365 12.9138 30.3361 11.7295 30.3361 10.0016C30.3361 8.2348 29.365 7.07003 28.0052 7.07003ZM38.6293 6.81763C36.7677 6.81763 36.2741 8.39365 36.1891 8.80122L36.1866 8.81321H40.8397L40.8369 8.78293C40.7831 8.26891 40.3393 6.81763 38.6293 6.81763Z" fill="#7589A5"/>
</svg>
