<svg width="132" height="19" viewBox="0 0 132 19" fill="none" xmlns="http://www.w3.org/2000/svg">
<path fill-rule="evenodd" clip-rule="evenodd" d="M6.40639 0.0322266H0.533203L7.28169 9.49989L0.533203 19.0001H6.40639L13.1572 9.49989L6.40639 0.0322266Z" fill="#7589A5"/>
<path d="M13.8687 4.27539H16.6882L18.8562 7.80722L21.0995 4.27539H23.7608L20.2195 9.55217L24.0703 15.3321H21.1754L18.7629 11.5063L16.3005 15.3321H13.5742L17.4325 9.53756L13.8687 4.27539Z" fill="#7589A5"/>
<path d="M27.2335 6.10167L26.8005 8.56646L26.833 8.59661C27.135 8.29746 27.4544 8.08076 27.7941 7.95262C28.1337 7.82118 28.521 7.759 28.9535 7.759C29.4919 7.759 29.9668 7.85699 30.3795 8.05296C30.7917 8.24941 31.1417 8.51087 31.4258 8.84017C31.7099 9.16947 31.9266 9.55671 32.0768 10.0076C32.2281 10.4556 32.3034 10.9304 32.3034 11.4359C32.3034 11.997 32.1927 12.5124 31.9765 12.9882C31.7607 13.4687 31.4658 13.8856 31.1012 14.2357C30.7314 14.5876 30.3064 14.8542 29.8236 15.045C29.336 15.2367 28.8225 15.3272 28.2741 15.3168C27.746 15.3168 27.2429 15.2466 26.7628 15.1062C26.2847 14.9677 25.8597 14.7534 25.4876 14.467C25.1149 14.1754 24.8186 13.8187 24.5972 13.3905C24.3758 12.9632 24.2599 12.4648 24.25 11.8967H26.4486C26.499 12.3923 26.6846 12.787 27.0069 13.0782C27.3239 13.3731 27.7314 13.5215 28.227 13.5215C28.5163 13.5215 28.7777 13.4631 29.0067 13.3453C29.2404 13.2266 29.4368 13.0735 29.5974 12.8822C29.7557 12.6914 29.8792 12.47 29.9673 12.2184C30.0577 11.9645 30.1006 11.7049 30.1006 11.4387C30.1006 11.1622 30.0577 10.8984 29.9743 10.652C29.8942 10.4075 29.7685 10.1918 29.605 10.0057C29.4387 9.81911 29.2451 9.67354 29.0138 9.5732C28.7876 9.46956 28.5262 9.42198 28.2265 9.42198C27.8341 9.42198 27.5147 9.48746 27.2683 9.62832C27.0168 9.76918 26.7855 9.98588 26.5692 10.2874H24.5897L25.6586 4.29077H31.7155V6.10215H27.2335" fill="#7589A5"/>
<path d="M39.3744 4.27539C39.8266 4.27539 40.2572 4.32862 40.6671 4.44452C41.0718 4.55711 41.4288 4.72812 41.7336 4.96461C42.038 5.19639 42.2797 5.49506 42.4606 5.86017C42.6391 6.22715 42.7324 6.66009 42.7324 7.15804C42.7324 7.85951 42.5515 8.47099 42.1892 8.98355C41.8265 9.49987 41.2932 9.8287 40.5795 9.97474V10.0077C40.9417 10.06 41.2409 10.1538 41.4797 10.2923C41.7162 10.4326 41.9122 10.6088 42.0634 10.8255C42.2118 11.047 42.3197 11.2933 42.3875 11.5802C42.4554 11.862 42.4982 12.1686 42.5209 12.4979C42.5307 12.684 42.5411 12.9106 42.551 13.1796C42.5609 13.4491 42.5807 13.7181 42.6137 13.9927C42.641 14.2664 42.6937 14.5256 42.7621 14.7644C42.8275 15.0108 42.918 15.1969 43.0311 15.333H41.8637C41.801 15.2275 41.753 15.1017 41.7153 14.9533C41.6799 14.8049 41.655 14.6485 41.6399 14.4883C41.6248 14.3296 41.6098 14.1713 41.5999 14.0154C41.5895 13.8589 41.5796 13.7285 41.5669 13.6126C41.5466 13.223 41.5165 12.8329 41.4689 12.4457C41.4208 12.0608 41.3229 11.7164 41.1721 11.4116C41.0237 11.1049 40.8075 10.8637 40.5234 10.6771C40.2412 10.4882 39.8516 10.4077 39.3565 10.4279H35.3719V15.3325H34.3105V4.27586H39.3744V4.27539ZM39.2938 9.52249C39.6132 9.52249 39.9199 9.47443 40.2068 9.37645C40.4961 9.27846 40.75 9.13477 40.9662 8.95104C41.1825 8.76731 41.3539 8.53836 41.4844 8.27926C41.6102 8.01827 41.6733 7.71629 41.6733 7.37428C41.6733 6.69307 41.4793 6.15696 41.0873 5.76453C40.6972 5.37211 40.1013 5.17802 39.2938 5.17802H35.3724V9.52201H39.2938V9.52249Z" fill="#7589A5"/>
<path d="M51.9584 4.27539V5.17849H45.3814V9.15974H51.541V10.0657H45.3814V14.4266H52.0361V15.3321H44.3242V4.27539H51.9584Z" fill="#7589A5"/>
<path d="M61.3732 4.27539V5.17849H57.5178V15.3321H56.4634V5.17849H52.623V4.27539H61.3732Z" fill="#7589A5"/>
<path d="M65.2736 4.27539L69.6048 15.3321H68.478L67.1297 11.8912H62.0988L60.7684 15.3321H59.6543L64.0963 4.27539H65.2736ZM66.7754 10.9867L64.638 5.31982L62.4267 10.9867H66.7754Z" fill="#7589A5"/>
<path d="M71.7403 4.27051H70.6836V15.3319H71.7403V4.27051Z" fill="#7589A5"/>
<path d="M75.1021 4.27539V14.4266H81.2942V15.3321H74.0449V4.27539H75.1021Z" fill="#7589A5"/>
<path d="M87.5355 15.7508C86.6697 15.7508 85.8952 15.5967 85.2163 15.2759C84.5474 14.9608 83.9811 14.5358 83.5312 13.9912C83.0827 13.4542 82.7454 12.8192 82.5183 12.1003C82.2899 11.3818 82.1777 10.6139 82.1777 9.80554C82.1777 8.98017 82.3012 8.21087 82.5433 7.4849C82.7906 6.75894 83.144 6.1239 83.6023 5.58873C84.0626 5.04556 84.627 4.61827 85.2879 4.3097C85.9522 4.00019 86.7073 3.84473 87.5454 3.84473C88.1814 3.84473 88.7712 3.93612 89.3139 4.11655C89.8547 4.29887 90.3329 4.5608 90.7475 4.89669C91.1587 5.23729 91.4994 5.64291 91.7603 6.11354C92.0275 6.58699 92.2051 7.12122 92.3035 7.70161L92.3389 7.90889H92.1283H91.6671L91.6407 7.76144C91.5535 7.2682 91.3929 6.82584 91.1625 6.42211C90.9288 6.0212 90.6415 5.68201 90.29 5.39935C89.94 5.11434 89.5358 4.89575 89.0737 4.74076C88.6162 4.58624 88.1051 4.51086 87.5445 4.51086C86.7921 4.51086 86.1307 4.64936 85.5546 4.92543C84.9713 5.20432 84.4823 5.58167 84.0824 6.05606C83.6796 6.53376 83.3715 7.09154 83.1614 7.73647C82.9508 8.38093 82.8462 9.07298 82.8462 9.80601C82.8462 10.5437 82.9485 11.2377 83.1506 11.8854C83.3479 12.528 83.6457 13.0905 84.0433 13.564C84.4352 14.0351 84.9313 14.4119 85.5206 14.6932C86.1072 14.9669 86.7926 15.1092 87.5855 15.1092C88.1772 15.1092 88.7241 15.0074 89.2343 14.8039C89.752 14.5999 90.2034 14.3163 90.5798 13.9578C90.9595 13.6002 91.2549 13.1715 91.4749 12.6712C91.6906 12.1709 91.799 11.632 91.799 11.0464V10.6507H87.5139V10.4736V10.1659V9.98832H92.4703V15.5049H92.2927H91.7985L91.8037 13.3953C91.4796 14.0181 91.0221 14.5316 90.4394 14.9301C89.631 15.4794 88.6615 15.7508 87.5431 15.7508C87.5421 15.7508 87.5393 15.7508 87.5355 15.7508Z" fill="#7589A5"/>
<path d="M93.5482 15.5092H93.3711V4.10205H98.0826C99.2645 4.10346 100.156 4.32912 100.746 4.83367C101.334 5.33397 101.623 6.10752 101.649 7.10954C101.651 7.14488 101.651 7.17974 101.651 7.21507C101.651 7.94622 101.437 8.57372 101.013 9.07544C100.691 9.45703 100.268 9.74723 99.7531 9.9465C99.9585 10.0063 100.143 10.0798 100.306 10.1684C100.619 10.3408 100.868 10.5716 101.038 10.8609C101.204 11.1407 101.317 11.4691 101.372 11.8422C101.421 12.2045 101.447 12.604 101.447 13.059C101.447 13.2023 101.457 13.3982 101.465 13.6295C101.474 13.8594 101.491 14.0865 101.51 14.3093C101.533 14.5331 101.556 14.7338 101.586 14.9175C101.612 15.0914 101.655 15.2021 101.678 15.2289L101.884 15.5106H101.534H101.083L101.035 15.4108C100.967 15.2723 100.923 15.1074 100.887 14.901C100.857 14.7079 100.832 14.4959 100.818 14.2745C100.805 14.0559 100.789 13.8373 100.786 13.6121C100.781 13.3865 100.776 13.1891 100.776 13.0091C100.776 12.5639 100.745 12.1682 100.678 11.8238C100.616 11.4945 100.493 11.2269 100.311 11.0093C100.129 10.7968 99.861 10.6244 99.5086 10.5038C99.1505 10.3846 98.6578 10.3191 98.0312 10.3191H94.0438V15.5102H93.8653H93.5482V15.5092ZM98.0029 9.66102C98.402 9.66102 98.7784 9.61014 99.1439 9.50791C99.4977 9.41369 99.812 9.26058 100.079 9.0467C100.349 8.83659 100.562 8.57607 100.73 8.24725C100.889 7.93208 100.972 7.54767 100.972 7.0841C100.96 6.3327 100.74 5.78246 100.317 5.37637C99.9033 4.98536 99.1901 4.7696 98.1612 4.77054L94.0438 4.7696V9.66149H98.0029V9.66102Z" fill="#7589A5"/>
<path d="M105.185 15.2754C104.529 14.9589 103.975 14.5287 103.531 13.9823C103.09 13.4358 102.753 12.8026 102.524 12.079C102.298 11.362 102.18 10.6007 102.18 9.79938C102.18 8.99663 102.298 8.23345 102.524 7.51738C102.753 6.79283 103.09 6.16062 103.531 5.61509C103.974 5.0672 104.529 4.63332 105.184 4.31674C105.848 3.99168 106.606 3.83057 107.451 3.83057C108.301 3.83057 109.058 3.99168 109.718 4.31674C110.374 4.63332 110.931 5.06767 111.375 5.61509C111.816 6.16062 112.154 6.79283 112.383 7.51597C112.609 8.23345 112.723 8.99663 112.723 9.79938C112.723 10.5998 112.61 11.3601 112.383 12.079C112.154 12.8026 111.816 13.4358 111.375 13.9823C110.931 14.5287 110.374 14.9589 109.718 15.2754C109.057 15.5958 108.301 15.7517 107.451 15.7517C106.607 15.7517 105.849 15.5958 105.185 15.2754ZM104.103 13.6275C104.494 14.0925 104.97 14.4571 105.535 14.7219C106.095 14.9819 106.731 15.1129 107.451 15.1129C108.174 15.1129 108.81 14.9824 109.372 14.7233C109.936 14.4571 110.411 14.0925 110.803 13.6289C111.189 13.164 111.496 12.6062 111.71 11.957C111.926 11.2994 112.04 10.5894 112.05 9.81305C112.04 9.03715 111.926 8.3239 111.71 7.67049C111.496 7.02085 111.189 6.46024 110.803 5.99385C110.411 5.5317 109.936 5.16943 109.372 4.90326C108.81 4.64086 108.174 4.50989 107.451 4.50989C106.731 4.50989 106.095 4.64086 105.536 4.90326C104.969 5.16943 104.494 5.52935 104.103 5.99385C103.714 6.46024 103.41 7.02085 103.192 7.67049C102.979 8.32249 102.867 9.03715 102.857 9.80881C102.867 10.5889 102.979 11.2989 103.192 11.9561V11.9556C103.41 12.6062 103.714 13.164 104.103 13.6275Z" fill="#7589A5"/>
<path d="M121.967 4.09668H122.145V11.2079C122.145 12.7183 121.792 13.8682 121.056 14.6253C120.325 15.3818 119.263 15.7517 117.915 15.7517C117.912 15.7517 117.909 15.7517 117.908 15.7517C116.554 15.7531 115.493 15.3833 114.761 14.6253C114.022 13.8682 113.672 12.7183 113.672 11.2079V4.09668H113.85H114.343V11.2079C114.345 12.5147 114.641 13.4758 115.21 14.1231C115.775 14.7624 116.658 15.0968 117.908 15.0987C119.156 15.0968 120.037 14.7624 120.603 14.1231C121.17 13.4748 121.472 12.5143 121.472 11.2079V4.09668H121.65H121.967Z" fill="#7589A5"/>
<path d="M123.317 15.5092H123.139V4.10669H127.801C128.89 4.10669 129.762 4.36815 130.395 4.91085C131.025 5.45686 131.342 6.26809 131.341 7.30403C131.341 7.81141 131.246 8.2679 131.061 8.67116C130.875 9.07065 130.615 9.40843 130.282 9.68025C129.954 9.94784 129.562 10.1499 129.115 10.2833C128.668 10.4203 128.174 10.4844 127.645 10.4844H123.811V15.5096H123.633H123.317V15.5092ZM127.797 9.81169C128.213 9.81169 128.597 9.75704 128.95 9.64351C129.303 9.53186 129.601 9.36933 129.858 9.15215C130.11 8.93875 130.306 8.67587 130.452 8.36919C130.595 8.06486 130.668 7.71012 130.668 7.29838C130.666 6.45464 130.431 5.83986 129.971 5.41634C129.519 4.99612 128.803 4.77047 127.797 4.77047L123.81 4.76953V9.81216H127.797V9.81169Z" fill="#7589A5"/>
</svg>
