<svg width="92" height="16" viewBox="0 0 92 16" fill="none" xmlns="http://www.w3.org/2000/svg">
<path fill-rule="evenodd" clip-rule="evenodd" d="M54.3961 10.2338V15.3858H51.2878V0.880371H54.3961V10.2296L58.4659 5.07917H62.156L57.7837 10.2317L62.1669 15.3858H58.4447L54.3961 10.2338ZM73.046 8.41593C73.046 7.64663 73.2967 6.90012 73.7795 6.25981C74.1893 5.70031 74.7441 5.33923 75.442 5.17449C75.8885 5.06985 76.7407 5.02478 77.7276 5.02478H80.2868L79.9303 7.08454H77.523C77.1603 7.08454 76.1501 7.356 76.1408 8.50038L76.1356 12.865L76.133 15.3661L73.046 15.3671V8.41593ZM63.7211 5.02478H66.8294V15.3314H63.7211V5.02478ZM91.6958 5.02478V15.3485C91.6958 15.3485 84.542 15.4366 84.1374 15.3423C83.4686 15.1796 82.9356 14.8848 82.5325 14.3362C82.0834 13.7177 81.8528 13.0017 81.8528 12.2065V5.02478H84.9767V11.9817C84.9767 12.3205 85.0601 12.6536 85.3471 12.9002C85.6372 13.1452 86.0713 13.3115 86.407 13.3115L88.588 13.3146V5.02478H91.6958ZM33.4073 7.10009L32.0241 7.09387L27.9756 7.10475L27.6554 5.02478H33.2208C34.2103 5.02478 34.7978 5.11233 35.2759 5.28587C35.7639 5.4475 36.2203 5.69513 36.5679 6.03187C37.0218 6.48205 37.3176 6.89701 37.5522 7.45754C37.7035 7.97766 37.8289 8.10925 37.8289 9.51886V15.3858H30.1824C29.3339 15.3858 28.6024 15.205 28.0108 14.6372C27.4181 14.0715 27.1156 13.0452 27.1156 12.1801C27.1156 11.2662 27.4539 10.4881 27.9999 9.90067C28.5454 9.29921 29.0194 9.17954 29.8442 9.17954L34.8941 9.17591L34.8858 8.58171C34.934 8.02066 34.317 7.10941 33.4073 7.10009ZM30.9025 11.2481C30.9025 11.2481 30.3876 11.2538 30.1213 11.473C29.8706 11.69 29.7058 11.9832 29.7058 12.3417C29.7058 12.6629 29.8649 12.9209 30.1047 13.1255C30.356 13.3333 30.5534 13.3131 30.8689 13.3131H34.8863L34.8724 11.2414L30.9025 11.2481ZM21.7299 5.02996C22.9525 5.07917 23.9819 5.60758 24.7937 6.66182C25.549 7.64404 25.9272 8.82364 25.9272 10.1758C25.9272 11.5859 25.549 12.8012 24.8051 13.8301C23.9949 14.9413 22.966 15.3858 21.6942 15.3858H15.0605V0.880371H18.1326V5.02996H21.7299ZM20.6627 7.09698H18.117V13.3136H20.7969C21.4797 13.3136 22.0283 12.9991 22.4428 12.3878C22.8665 11.775 23.08 11.0513 23.08 10.2467C23.08 9.41888 22.8562 8.68377 22.3961 8.04864C21.9403 7.40833 21.3678 7.09698 20.6633 7.09698H20.6627ZM49.0364 6.25929C49.4959 6.8996 49.7275 7.60985 49.7275 8.37915L49.7337 15.3858H46.6254L46.6368 8.74852C46.6311 7.04051 44.9091 7.08765 44.9091 7.08765L42.481 7.0918V15.3858L39.3727 15.3734V5.01234L45.3789 5.02478C46.3244 5.02478 47.017 5.06933 47.4439 5.17449C48.1137 5.33923 48.6437 5.70031 49.0364 6.25929Z" fill="#7589A5"/>
<path fill-rule="evenodd" clip-rule="evenodd" d="M63.7207 1.39893H66.829V3.98918H63.7207V1.39893Z" fill="#7589A5"/>
<path fill-rule="evenodd" clip-rule="evenodd" d="M68.3828 12.7954H71.4911V15.3857H68.3828V12.7954Z" fill="#7589A5"/>
<path fill-rule="evenodd" clip-rule="evenodd" d="M6.73438 0.880371H12.4329V3.98867H6.73438V0.880371Z" fill="#7589A5"/>
<path fill-rule="evenodd" clip-rule="evenodd" d="M3.62695 6.57861H12.4338V9.68692H3.62695V6.57861Z" fill="#7589A5"/>
<path fill-rule="evenodd" clip-rule="evenodd" d="M0 12.2773H12.4332V15.3856H0V12.2773Z" fill="#7589A5"/>
</svg>
