<svg width="152" height="12" viewBox="0 0 152 12" fill="none" xmlns="http://www.w3.org/2000/svg">
<path fill-rule="evenodd" clip-rule="evenodd" d="M129.984 11.8583L125.159 0H123.651L118.825 11.8583H120.525L121.841 8.59743H126.969L128.325 11.8583H129.984ZM150.142 11.8583H152L148.542 6.88096C148.283 6.50458 148.046 6.21863 147.832 6.02481C147.617 5.83114 147.364 5.68965 147.071 5.60088C147.797 5.34237 148.334 4.75555 148.74 3.93173L149.433 2.48046C149.434 2.47902 149.434 2.47769 149.434 2.47654C149.435 2.47605 149.435 2.47559 149.435 2.47517L150.615 0H149.089L148.037 2.18422L147.505 3.28972C147.211 3.91055 146.785 4.39059 146.368 4.65384C145.959 4.91246 145.512 5.03993 144.97 5.03993H144.159L144.162 0H142.606L142.651 11.8583H144.162L144.159 6.52225H145.19C145.449 6.52225 146.383 6.54996 146.834 7.08859C146.979 7.26188 147.144 7.47996 147.324 7.74499L150.142 11.8583ZM140.54 0H139.032V5.03993H132.699V0H131.191V11.8583H132.699V6.52225H139.032V11.8583H140.54V0ZM105.555 11.8583L103.445 5.92935L105.579 0H102.822L101.333 4.44692H100.719L99.222 0H96.5081L98.6189 5.92935L96.5081 11.8583H99.222L100.73 7.11489H101.333L102.841 11.8583H105.555ZM95.3018 11.8583L94.095 0H87.7617L86.5554 11.8583H89.2644L89.5717 8.89367H92.2856L92.6251 11.8583H95.3018ZM56.6987 0H48.5554V11.8583H56.6987V8.00442H53.9843V9.19034H51.2698V2.37185H53.9843V3.55761H56.6987V0ZM18.0953 0H9.95239V11.8583H18.0953V0ZM8.14289 0H0V11.8583H2.71433V8.30082H8.14289V0ZM28.0477 0H19.9048V11.8583H28.0477V8.00442H25.3333V9.19034H22.6191V2.37185H25.3333V3.55761H28.0477V0ZM66.6509 0H58.5081V11.8583H66.6509V8.00442H63.9365V9.19034H61.222V2.37185H63.9365V3.55761H66.6509V0ZM75.9725 0H67.8572V2.66835H70.5717V11.8583H73.2856V2.66835H76L75.9725 0ZM85.3491 0H77.2063V11.8583H79.9207V8.30082H85.3491V0ZM46.7459 0H38.6032V11.8583H46.7459V0ZM36.7937 0H29.8572V11.8583H32.5714V2.66835H36.7937V0ZM118.424 8.55183C118.424 5.68232 116.061 5.03993 114.905 5.03993V6.52225C116.061 6.52225 116.784 7.39216 116.784 8.47734C116.784 9.08469 116.585 9.53223 116.193 9.86286C115.702 10.2756 115.05 10.3749 114 10.376C112.998 10.3773 112.805 10.3761 112.794 10.376L112.794 10.376H109.778V11.8583H114C114.804 11.8583 115.709 11.7105 116.375 11.431C116.914 11.2043 117.358 10.8737 117.698 10.4656C118.372 9.65593 118.424 8.8057 118.424 8.55183ZM124.361 1.77894L126.365 7.11489H122.445L124.361 1.77894ZM44.032 9.19034H41.3175V2.66835H44.032V9.19034ZM15.3809 9.19034H12.6667V2.66835H15.3809V9.19034ZM109.778 1.48243H117.318V0H109.778V1.48243ZM82.6352 5.63268H79.9207V2.66835H82.6352V5.63268ZM5.42861 5.63268H2.71433V2.66835H5.42861V5.63268ZM91.6824 2.66835L91.9843 6.22569H89.873L90.1748 2.66835H91.6824ZM111.285 5.03995H114V6.52227H111.285V9.19035H109.778V6.52227H107.063V5.03995H109.778V2.37186H111.285V5.03995Z" fill="#7589A5"/>
</svg>
