<svg width="48" height="19" viewBox="0 0 48 19" fill="none" xmlns="http://www.w3.org/2000/svg">
<path d="M43.7198 1.68078C41.6923 2.04122 40.6109 3.57312 40.6109 6.23142C40.6109 8.93477 42.0527 10.737 44.1703 10.737C45.2066 10.737 46.1077 10.3766 48.0001 9.43038C48.0001 11.6381 48.0001 11.6381 48.0001 11.6381C45.7022 12.7195 44.3506 12.9898 42.5483 12.9898C40.5208 12.9898 39.079 12.4942 37.9526 11.2777C36.7812 10.1062 36.1504 8.57432 36.1504 6.81714C36.1504 2.9874 39.034 0.329102 43.2242 0.329102C45.9726 0.329102 47.91 1.63572 47.91 3.48301C47.91 4.69952 47.0088 5.55558 45.7022 5.55558C45.0264 5.55558 44.4857 5.3303 43.7198 4.9248" fill="#7589A5"/>
<path d="M33.5829 6.81714C35.4302 4.5193 36.106 3.57312 36.106 2.44673C36.106 1.32033 35.2049 0.329102 33.9433 0.329102C33.2224 0.329102 32.5466 0.734604 32.2312 1.09505C32.2312 5.82591 32.2312 5.82591 32.2312 5.82591C29.2125 9.88094 29.2125 9.88094 29.2125 9.88094C29.2125 0.689548 29.2125 0.689548 29.2125 0.689548C26.3289 0.689548 26.3289 0.689548 26.3289 0.689548C21.553 8.57432 21.553 8.57432 21.553 8.57432C21.553 0.689548 21.553 0.689548 21.553 0.689548C19.931 0.689548 19.931 0.689548 19.931 0.689548C15.5605 1.68078 15.5605 1.68078 15.5605 1.68078C15.5605 2.80717 15.5605 2.80717 15.5605 2.80717C17.9485 3.03245 17.9485 3.03245 17.9485 3.03245C17.9485 12.8096 17.9485 12.8096 17.9485 12.8096C20.9672 12.8096 20.9672 12.8096 20.9672 12.8096C25.5629 5.24019 25.5629 5.24019 25.5629 5.24019C25.5629 12.8096 25.5629 12.8096 25.5629 12.8096C28.9421 12.8096 28.9421 12.8096 28.9421 12.8096" fill="#7589A5"/>
<path d="M6.4143 11.2781C6.77475 11.2781 6.86486 11.2781 7.09014 11.2781C9.52315 11.2781 10.8748 9.79129 10.8748 6.81761C10.8748 4.33954 9.79349 2.98786 7.76598 2.98786C7.49564 2.98786 7.09014 3.03292 6.4143 3.16808V11.2781ZM6.4143 16.5947C8.39676 17.0453 8.39676 17.0453 8.39676 17.0453C8.39676 18.1717 8.39676 18.1717 8.39676 18.1717C0.602098 18.1717 0.602099 18.1717 0.602099 18.1717C0.602099 17.0453 0.602099 17.0453 0.602099 17.0453C2.40433 16.5947 2.40433 16.5947 2.40433 16.5947C2.40433 2.98786 2.40433 2.98786 2.40433 2.98786C0.421875 2.98786 0.421875 2.98786 0.421875 2.98786C0.421875 1.86146 0.421875 1.86146 0.421875 1.86146C5.15274 0.419677 5.15274 0.419678 5.15274 0.419678C6.4143 0.419678 6.4143 0.419678 6.4143 0.419678C6.4143 2.04169 6.4143 2.04169 6.4143 2.04169C8.62204 0.690012 9.38799 0.464733 10.5594 0.464733C13.1727 0.464733 15.1551 2.89775 15.1551 6.27694C15.1551 10.1517 12.4968 12.81 8.44181 12.81C7.99126 12.81 7.22531 12.765 6.4143 12.7199" fill="#7589A5"/>
</svg>
