<svg width="56" height="56" viewBox="0 0 56 56" fill="none" xmlns="http://www.w3.org/2000/svg">
<path d="M13 22C13 22.5523 13.4477 23 14 23C14.5523 23 15 22.5523 15 22H13ZM32.1875 49.75C31.6352 49.75 31.1875 50.1977 31.1875 50.75C31.1875 51.3023 31.6352 51.75 32.1875 51.75V49.75ZM41.25 7C41.25 6.44772 40.8023 6 40.25 6C39.6977 6 39.25 6.44772 39.25 7H41.25ZM27.25 7C27.25 6.44772 26.8023 6 26.25 6C25.6977 6 25.25 6.44772 25.25 7H27.25ZM23.75 28C23.75 27.4477 23.3023 27 22.75 27C22.1977 27 21.75 27.4477 21.75 28H23.75ZM13.25 28C13.25 27.4477 12.8023 27 12.25 27C11.6977 27 11.25 27.4477 11.25 28H13.25ZM15 22V3.5H13V22H15ZM15 3.5C15 3.20225 15.0949 3.03183 15.1884 2.93836C15.2818 2.84489 15.4522 2.75 15.75 2.75V0.75C14.9978 0.75 14.2932 1.00511 13.7741 1.52414C13.2551 2.04317 13 2.74775 13 3.5H15ZM15.75 2.75H50.75V0.75H15.75V2.75ZM50.75 2.75C51.0478 2.75 51.2182 2.84489 51.3116 2.93836C51.4051 3.03183 51.5 3.20225 51.5 3.5H53.5C53.5 2.74775 53.2449 2.04317 52.7259 1.52414C52.2068 1.00511 51.5022 0.75 50.75 0.75V2.75ZM51.5 3.5V49H53.5V3.5H51.5ZM51.5 49C51.5 49.2978 51.4051 49.4682 51.3116 49.5616C51.2182 49.6551 51.0478 49.75 50.75 49.75V51.75C51.5022 51.75 52.2068 51.4949 52.7259 50.9759C53.2449 50.4568 53.5 49.7522 53.5 49H51.5ZM50.75 49.75H32.1875V51.75H50.75V49.75ZM29.75 53.25H5.25V55.25H29.75V53.25ZM5.25 53.25C4.95225 53.25 4.78183 53.1551 4.68836 53.0616C4.59489 52.9682 4.5 52.7978 4.5 52.5H2.5C2.5 53.2522 2.75511 53.9568 3.27414 54.4759C3.79317 54.9949 4.49775 55.25 5.25 55.25V53.25ZM4.5 52.5V24.5H2.5V52.5H4.5ZM4.5 24.5C4.5 24.2022 4.59489 24.0318 4.68836 23.9384C4.78183 23.8449 4.95225 23.75 5.25 23.75V21.75C4.49775 21.75 3.79317 22.0051 3.27414 22.5241C2.75511 23.0432 2.5 23.7478 2.5 24.5H4.5ZM5.25 23.75H29.75V21.75H5.25V23.75ZM29.75 23.75C30.0478 23.75 30.2182 23.8449 30.3116 23.9384C30.4051 24.0318 30.5 24.2022 30.5 24.5H32.5C32.5 23.7478 32.2449 23.0432 31.7259 22.5241C31.2068 22.0051 30.5022 21.75 29.75 21.75V23.75ZM30.5 24.5V52.5H32.5V24.5H30.5ZM30.5 52.5C30.5 52.7978 30.4051 52.9682 30.3116 53.0616C30.2182 53.1551 30.0478 53.25 29.75 53.25V55.25C30.5022 55.25 31.2068 54.9949 31.7259 54.4759C32.2449 53.9568 32.5 53.2522 32.5 52.5H30.5ZM39.25 7C39.25 10.6149 36.5811 13 33.25 13V15C37.6189 15 41.25 11.7851 41.25 7H39.25ZM33.25 13C29.9189 13 27.25 10.6149 27.25 7H25.25C25.25 11.7851 28.8811 15 33.25 15V13ZM21.75 28C21.75 29.6233 21.2549 30.6401 20.5688 31.2624C19.8656 31.9002 18.8223 32.25 17.5 32.25V34.25C19.1527 34.25 20.7344 33.8123 21.9124 32.7438C23.1076 31.6599 23.75 30.0517 23.75 28H21.75ZM17.5 32.25C16.1777 32.25 15.1344 31.9002 14.4312 31.2624C13.7451 30.6401 13.25 29.6233 13.25 28H11.25C11.25 30.0517 11.8924 31.6599 13.0876 32.7438C14.2656 33.8123 15.8473 34.25 17.5 34.25V32.25Z" fill="#7589A5"/>
</svg>
