<svg width="56" height="56" viewBox="0 0 56 56" fill="none" xmlns="http://www.w3.org/2000/svg">
<g clip-path="url(#clip0)">
<path d="M36.75 21L26.5217 32.491C26.1504 32.9082 25.5093 32.9403 25.0981 32.5623L21 28.7954M49 33.9661V8.60681C49 7.99857 48.4667 7.52114 47.8597 7.5596C44.6096 7.76551 35.1271 7.71055 28.8058 0.923894C28.3746 0.460916 27.6254 0.460916 27.1942 0.923894C20.8729 7.71055 11.3904 7.76551 8.14035 7.5596C7.53332 7.52114 7 7.99857 7 8.60681V33.9661C6.99991 36.1692 7.56705 38.3366 8.64893 40.2679C9.73081 42.1991 11.2924 43.8317 13.1893 45.0144L27.4709 53.92C27.7947 54.122 28.2053 54.122 28.5291 53.92L42.8107 45.0144C44.7075 43.8317 46.2692 42.1991 47.3511 40.2679C48.4329 38.3366 49.0001 36.1692 49 33.9661Z" stroke="#7589A5" stroke-width="2" stroke-linecap="round" stroke-linejoin="round"/>
</g>
<defs>
<clipPath id="clip0">
</clipPath>
</defs>
</svg>
