<svg width="56" height="56" viewBox="0 0 56 56" fill="none" xmlns="http://www.w3.org/2000/svg">
<path d="M20 13C21.7563 6.3557 24.6972 2 28.0284 2C31.3232 2 34.2368 6.26112 36 12.7854M37 42C35.1762 49.224 32.019 54 28.4286 54C24.931 54 21.8429 49.4592 20 42.5352M50 14C47.617 10.316 44.3566 7.28884 40.5146 5.19324C36.6727 3.09763 32.371 2 28 2C23.629 2 19.3273 3.09763 15.4854 5.19324C11.6434 7.28884 8.38296 10.316 6 14M6 42C8.38296 45.684 11.6434 48.7112 15.4854 50.8068C19.3273 52.9024 23.629 54 28 54C32.371 54 36.6727 52.9024 40.5146 50.8068C44.3566 48.7112 47.617 45.684 50 42M17 22L14.9525 32.5301C14.8608 33.0015 14.222 33.0852 14.012 32.6532L10.4497 25.3251C10.2673 24.9499 9.73271 24.9499 9.55032 25.3251L5.98801 32.6532C5.77805 33.0852 5.13918 33.0015 5.04752 32.5301L3 22M35 22L32.9525 32.5301C32.8608 33.0015 32.222 33.0852 32.012 32.6532L28.4497 25.3251C28.2673 24.9499 27.7327 24.9499 27.5503 25.3251L23.988 32.6532C23.778 33.0852 23.1392 33.0015 23.0475 32.5301L21 22M53 22L50.9525 32.5301C50.8608 33.0015 50.222 33.0852 50.012 32.6532L46.4497 25.3251C46.2673 24.9499 45.7327 24.9499 45.5503 25.3251L41.988 32.6532C41.778 33.0852 41.1392 33.0015 41.0475 32.5301L39 22" stroke="#7589A5" stroke-width="2" stroke-linecap="round" stroke-linejoin="round"/>
</svg>
